REM DIRINDEX 1\2\5,1\2\6,1\2\7,1\2\8,1\3\9,1\3\10,1\3\11,1\4\12,1\4\13,1\4\14,1\4\15,1\4\16
REM DIRNAME folder01,folder02,folder03,folder04,folder05,folder06,folder07,folder08,folder09,folder10,folder11,folder12,folder13,folder14,folder15,folder16
TITLE ""
FILE "1200_sec01_0024_0031.mp3" MP3
  TRACK 01 AUDIO
    TITLE "0:"
    INDEX 01 00:00:00
  TRACK 02 AUDIO
    TITLE "12:cjc034_03719"
    INDEX 01 00:00:17
  TRACK 03 AUDIO
    TITLE "0:"
    INDEX 01 00:01:36
  TRACK 04 AUDIO
    TITLE "13:cjc034_03720"
    INDEX 01 00:01:69
  TRACK 05 AUDIO
    TITLE "0:"
    INDEX 01 00:04:74
  TRACK 06 AUDIO
    TITLE "14:cjc034_03721"
    INDEX 01 00:05:32
  TRACK 07 AUDIO
    TITLE "0:"
    INDEX 01 00:06:51
  TRACK 08 AUDIO
    TITLE "15:cjc034_03722"
    INDEX 01 00:07:09
  TRACK 09 AUDIO
    TITLE "0:"
    INDEX 01 00:10:14
  TRACK 10 AUDIO
    TITLE "12:cjc034_03723"
    INDEX 01 00:11:48
  TRACK 11 AUDIO
    TITLE "0:"
    INDEX 01 00:13:00
  TRACK 12 AUDIO
    TITLE "13:cjc034_03724"
    INDEX 01 00:13:37
  TRACK 13 AUDIO
    TITLE "0:"
    INDEX 01 00:14:39
  TRACK 14 AUDIO
    TITLE "14:cjc034_03725"
    INDEX 01 00:14:74
  TRACK 15 AUDIO
    TITLE "0:"
    INDEX 01 00:16:24
  TRACK 16 AUDIO
    TITLE "15:cjc034_03726"
    INDEX 01 00:16:59
  TRACK 17 AUDIO
    TITLE "0:"
    INDEX 01 00:20:20
  TRACK 18 AUDIO
    TITLE "12:cjc034_03727"
    INDEX 01 00:21:57
  TRACK 19 AUDIO
    TITLE "0:"
    INDEX 01 00:22:56
  TRACK 20 AUDIO
    TITLE "13:cjc034_03728"
    INDEX 01 00:23:18
  TRACK 21 AUDIO
    TITLE "0:"
    INDEX 01 00:25:35
  TRACK 22 AUDIO
    TITLE "14:cjc034_03729"
    INDEX 01 00:25:72
  TRACK 23 AUDIO
    TITLE "0:"
    INDEX 01 00:26:73
  TRACK 24 AUDIO
    TITLE "15:cjc034_03730"
    INDEX 01 00:27:36
  TRACK 25 AUDIO
    TITLE "0:"
    INDEX 01 00:30:38
  TRACK 26 AUDIO
    TITLE "12:cjc034_03731"
    INDEX 01 00:32:00
  TRACK 27 AUDIO
    TITLE "0:"
    INDEX 01 00:33:13
  TRACK 28 AUDIO
    TITLE "13:cjc034_03732"
    INDEX 01 00:33:42
  TRACK 29 AUDIO
    TITLE "0:"
    INDEX 01 00:35:06
  TRACK 30 AUDIO
    TITLE "14:cjc034_03733"
    INDEX 01 00:35:41
  TRACK 31 AUDIO
    TITLE "0:"
    INDEX 01 00:36:50
  TRACK 32 AUDIO
    TITLE "15:cjc034_03734"
    INDEX 01 00:37:07
  TRACK 33 AUDIO
    TITLE "0:"
    INDEX 01 00:39:35
  TRACK 34 AUDIO
    TITLE "12:cjc034_03735"
    INDEX 01 00:40:72
  TRACK 35 AUDIO
    TITLE "0:"
    INDEX 01 00:42:02
  TRACK 36 AUDIO
    TITLE "13:cjc034_03736"
    INDEX 01 00:42:35
  TRACK 37 AUDIO
    TITLE "0:"
    INDEX 01 00:45:51
  TRACK 38 AUDIO
    TITLE "14:cjc034_03737"
    INDEX 01 00:46:15
  TRACK 39 AUDIO
    TITLE "0:"
    INDEX 01 00:47:21
  TRACK 40 AUDIO
    TITLE "15:cjc034_03738"
    INDEX 01 00:47:54
  TRACK 41 AUDIO
    TITLE "0:"
    INDEX 01 00:50:33
  TRACK 42 AUDIO
    TITLE "12:cjc034_03739"
    INDEX 01 00:51:67
  TRACK 43 AUDIO
    TITLE "0:"
    INDEX 01 00:53:13
  TRACK 44 AUDIO
    TITLE "13:cjc034_03740"
    INDEX 01 00:53:45
  TRACK 45 AUDIO
    TITLE "0:"
    INDEX 01 00:54:66
  TRACK 46 AUDIO
    TITLE "14:cjc034_03741"
    INDEX 01 00:55:22
  TRACK 47 AUDIO
    TITLE "0:"
    INDEX 01 00:56:39
  TRACK 48 AUDIO
    TITLE "15:cjc034_03742"
    INDEX 01 00:56:74
  TRACK 49 AUDIO
    TITLE "0:"
    INDEX 01 00:59:38
  TRACK 50 AUDIO
    TITLE "12:cjc034_03743"
    INDEX 01 01:00:70
  TRACK 51 AUDIO
    TITLE "0:"
    INDEX 01 01:02:16
  TRACK 52 AUDIO
    TITLE "13:cjc034_03744"
    INDEX 01 01:02:50
  TRACK 53 AUDIO
    TITLE "0:"
    INDEX 01 01:03:51
  TRACK 54 AUDIO
    TITLE "14:cjc034_03745"
    INDEX 01 01:04:09
  TRACK 55 AUDIO
    TITLE "0:"
    INDEX 01 01:05:32
  TRACK 56 AUDIO
    TITLE "15:cjc034_03746"
    INDEX 01 01:05:64
  TRACK 57 AUDIO
    TITLE "0:"
    INDEX 01 01:08:27
  TRACK 58 AUDIO
    TITLE "12:cjc034_03747"
    INDEX 01 01:09:59
  TRACK 59 AUDIO
    TITLE "0:"
    INDEX 01 01:10:71
  TRACK 60 AUDIO
    TITLE "13:cjc034_03748"
    INDEX 01 01:11:27
  TRACK 61 AUDIO
    TITLE "0:"
    INDEX 01 01:12:40
  TRACK 62 AUDIO
    TITLE "14:cjc034_03749"
    INDEX 01 01:12:71
  TRACK 63 AUDIO
    TITLE "0:"
    INDEX 01 01:14:06
  TRACK 64 AUDIO
    TITLE "15:cjc034_03750"
    INDEX 01 01:14:43
  TRACK 65 AUDIO
    TITLE "0:"
    INDEX 01 01:17:00
